<svg width="1074" height="696" viewBox="0 0 1074 696" fill="none" xmlns="http://www.w3.org/2000/svg">
<g clip-path="url(#clip0_8_4)">
<g opacity="0.919">
<path fill-rule="evenodd" clip-rule="evenodd" d="M293.717 153.893C292.17 152.808 294.026 155.641 293.717 153.893C287.962 163.249 283.325 173.163 279.802 183.635C282.454 191.935 287.094 198.543 293.717 203.463C291.218 205.327 288.435 207.214 285.368 209.128C289.601 214.187 290.528 219.38 288.151 224.708C278.901 227.379 269.625 229.738 260.321 231.789C260.321 228.956 260.321 226.124 260.321 223.291C265.553 224.059 269.263 222.17 271.453 217.626C273.254 215.434 274.181 212.601 274.236 209.128C274.676 203.976 272.82 200.2 268.67 197.798C266.363 182.78 264.972 167.671 264.496 152.477C262.089 137.629 255.131 125.825 243.624 117.07C233.418 115.181 223.216 115.181 213.011 117.07C208.578 119.758 204.868 123.061 201.879 126.984C198.005 132.006 194.758 137.671 192.139 143.979C190.75 160.949 190.285 177.945 190.747 194.966C182.432 193.988 178.722 197.764 179.615 206.296C178.53 213.326 181.313 217.102 187.964 217.626C188.443 220.436 187.513 222.323 185.181 223.291C163.947 213.723 163.021 201.922 182.398 187.884C175.789 181.721 169.296 175.582 162.918 169.472C168.595 164.722 174.161 160 179.615 155.31C174.119 145.081 169.48 134.697 165.701 124.151C172.271 123.659 178.764 122.715 185.181 121.319C185.986 111.105 183.161 95.1137 180.5 85.5C179.109 73.5683 178 77 187.5 82.5C195.938 90.6238 205.213 97.3411 214.402 104.323C225.031 92.217 235.701 79.9435 246.407 67.5C249.966 83.4304 252.749 99.4825 254.755 115.654C264.243 116.365 273.933 115.419 283 112.821C287.801 114.28 303 102.679 295 111.5C287.241 121.159 281.319 138.059 274.236 148.228C279.727 149.63 288.076 154.352 293.717 153.893Z" fill="#8CBCC2"/>
<path fill-rule="evenodd" clip-rule="evenodd" d="M271.453 217.626C274.445 205.055 270.447 203.731 258.18 204.971C259.179 182.206 255.005 160.491 245.657 139.822C233.899 124.28 218.88 117.107 201.879 126.984C204.868 123.061 208.578 119.758 213.011 117.07C223.216 115.181 233.418 115.181 243.624 117.07C255.131 125.825 262.089 137.629 264.496 152.477C264.972 167.671 266.363 182.78 268.67 197.798C272.82 200.2 274.676 203.976 274.236 209.128C274.181 212.601 273.254 215.434 271.453 217.626Z" fill="#EFE9E1"/>
<path fill-rule="evenodd" clip-rule="evenodd" d="M271.453 217.626C269.263 222.17 265.553 224.059 260.321 223.291C259.534 221.056 258.784 223.508 256.788 221.967C256.557 251.12 242.178 264.339 213.652 261.623C204.675 255.385 195.861 248.777 187.214 241.795C185.839 237.166 184.736 228.104 185.181 223.291C187.513 222.323 188.443 220.436 187.964 217.626C194.488 211.344 195.414 203.789 190.747 194.966C190.285 177.945 190.75 160.949 192.139 143.979C194.758 137.671 198.005 132.006 201.879 126.984C218.88 117.107 233.899 124.28 245.657 139.822C255.005 160.491 259.179 182.206 258.18 204.971C270.447 203.731 274.445 205.055 271.453 217.626Z" fill="#E6CFC7"/>
<path fill-rule="evenodd" clip-rule="evenodd" d="M88.4189 213.469C83.2426 209.393 78.6034 204.674 74.5041 199.306C76.3603 196.474 78.2138 193.641 80.07 190.808C86.109 187.019 90.7455 181.824 93.9848 175.229C101.716 172.615 107.282 174.977 110.683 182.311C105.209 194.502 97.7891 204.889 88.4189 213.469Z" fill="#5BA041"/>
<path fill-rule="evenodd" clip-rule="evenodd" d="M68.9382 199.306C68.6989 202.127 69.6284 204.487 71.7212 206.388C78.8595 212.279 86.2816 217.471 93.9849 221.967C98.5462 224.723 102.259 228.499 105.117 233.297C99.651 244.375 102.434 251.93 113.466 255.958C113.944 258.768 113.015 260.654 110.683 261.623C103.336 258.937 95.9135 256.105 88.419 253.125C68.2369 238.741 49.2209 222.689 31.3681 204.971C29.587 193.811 33.7615 186.259 43.8915 182.311C53.6486 185.857 61.9975 191.522 68.9382 199.306Z" fill="#7F888C"/>
<path fill-rule="evenodd" clip-rule="evenodd" d="M93.9849 219.134C91.2019 218.191 89.3456 216.302 88.4189 213.469C97.7891 204.889 105.209 194.502 110.683 182.311C107.282 174.977 101.716 172.615 93.9848 175.229C90.7455 181.824 86.109 187.019 80.07 190.808C80.07 188.919 80.07 187.033 80.07 185.143C84.9681 169.493 95.1732 164.301 110.683 169.564C115.378 174.983 116.769 181.121 114.857 187.976C108.373 198.802 101.415 209.186 93.9849 219.134Z" fill="#9CC58E"/>
<path fill-rule="evenodd" clip-rule="evenodd" d="M80.07 185.143C80.07 187.033 80.07 188.919 80.07 190.808C78.2138 193.641 76.3603 196.474 74.5041 199.306C72.6478 199.306 70.7944 199.306 68.9382 199.306C72.0106 193.955 75.7203 189.236 80.07 185.143Z" fill="#838685"/>
<path fill-rule="evenodd" clip-rule="evenodd" d="M293.717 153.893C301.028 155.607 306.306 157.115 313.839 158.234C304.054 167.72 294.779 177.634 286.01 187.976C293.432 192.698 300.851 197.417 308.273 202.139C304.516 206.246 299.238 203.795 293.717 203.463C287.094 198.543 282.454 191.935 279.802 183.635C283.325 173.163 287.962 163.249 293.717 153.893C292.17 152.808 294.026 155.641 293.717 153.893Z" fill="#ADC3CC"/>
<path fill-rule="evenodd" clip-rule="evenodd" d="M190.747 194.966C195.414 203.789 194.488 211.344 187.964 217.626C181.313 217.102 178.53 213.326 179.615 206.296C178.722 197.764 182.432 193.988 190.747 194.966Z" fill="#DEAC97"/>
<path fill-rule="evenodd" clip-rule="evenodd" d="M68.9382 199.306C70.7944 199.306 72.6478 199.306 74.5041 199.306C78.6034 204.674 83.2426 209.393 88.4189 213.469C89.3456 216.302 91.2019 218.191 93.9849 219.134C93.9849 220.077 93.9849 221.024 93.9849 221.967C86.2816 217.471 78.8595 212.279 71.7212 206.388C69.6284 204.487 68.6989 202.127 68.9382 199.306Z" fill="#3A4240"/>
<path fill-rule="evenodd" clip-rule="evenodd" d="M210.869 213.469C224.478 211.441 236.072 215.217 245.657 224.799C250.755 239.869 245.654 247.423 230.35 247.46C219.218 246.044 208.087 244.627 196.955 243.211C192.193 240.002 190.802 235.753 192.78 230.464C196.777 222.131 202.807 216.466 210.869 213.469Z" fill="#C4394E"/>
<path fill-rule="evenodd" clip-rule="evenodd" d="M105.117 233.297C107.9 233.297 110.683 233.297 113.466 233.297C114.314 241.551 114.314 249.106 113.466 255.958C102.434 251.93 99.651 244.375 105.117 233.297Z" fill="#323638"/>
<path fill-rule="evenodd" clip-rule="evenodd" d="M260.321 223.291C260.321 226.124 260.321 228.956 260.321 231.789C348.132 247.762 435.046 274.763 519.779 304.111C516.996 308.833 513.286 312.609 508.647 315.442C428.946 278.188 345.457 255.054 258.18 246.044C256.087 247.944 255.158 250.304 255.397 253.125C249.695 257.04 245.058 261.759 241.482 267.288C230.826 268.9 221.548 267.01 213.652 261.623C242.178 264.339 256.557 251.12 256.788 221.967C258.784 223.508 259.534 221.056 260.321 223.291Z" fill="#FBFBFA"/>
<path fill-rule="evenodd" clip-rule="evenodd" d="M798.076 323.939C797.149 326.772 795.293 328.661 792.51 329.604C792.51 327.715 792.51 325.829 792.51 323.939C790.971 276.108 766.851 250.615 720.153 247.46C753.924 239.653 779.435 251.927 796.684 284.283C801.571 297.387 802.036 310.606 798.076 323.939Z" fill="#855D5D"/>
<path fill-rule="evenodd" clip-rule="evenodd" d="M508.647 315.442C508.647 316.385 508.647 317.331 508.647 318.274C505.33 322.843 502.547 327.565 500.298 332.437C432.736 309.516 364.089 290.631 294.359 275.786C292.221 273.624 290.83 270.792 290.184 267.288C282.531 306.726 289.95 342.606 312.448 374.926C323.115 387.672 333.785 400.419 344.452 413.165C375.243 430.869 403.999 451.17 430.724 474.065C398.325 457.716 364.929 443.553 330.537 431.577C328.681 430.634 326.827 429.688 324.971 428.744C322.492 427.017 319.709 426.073 316.622 425.912C292.355 411.582 275.192 390.811 265.137 363.595C252.748 327.636 249.503 290.812 255.397 253.125C255.158 250.304 256.087 247.944 258.18 246.044C345.457 255.054 428.946 278.188 508.647 315.442Z" fill="#D8E7EC"/>
<path fill-rule="evenodd" clip-rule="evenodd" d="M720.153 247.46C766.851 250.615 790.971 276.108 792.51 323.939C791.583 323.939 790.653 323.939 789.727 323.939C784.984 272.905 758.084 253.077 709.021 264.455C709.36 256.547 713.073 250.882 720.153 247.46Z" fill="#825844"/>
<path fill-rule="evenodd" clip-rule="evenodd" d="M255.397 253.125C249.503 290.812 252.748 327.636 265.137 363.595C275.192 390.811 292.355 411.582 316.622 425.912C309.417 425.801 303.851 428.634 299.924 434.409C294.178 434.458 288.612 435.401 283.227 437.242C269.031 413.686 256.972 389.137 247.048 363.595C245.551 352.197 243.695 340.867 241.482 329.604C242.381 311.13 241.454 293.192 238.699 275.786C238.858 272.644 239.784 269.812 241.482 267.288C245.058 261.759 249.695 257.04 255.397 253.125Z" fill="#86BBC1"/>
<path fill-rule="evenodd" clip-rule="evenodd" d="M789.727 323.939C788.018 331.893 784.77 339.448 779.986 346.6C778.82 343.28 776.967 340.448 774.42 338.102C773.889 344.356 772.497 350.022 770.246 355.098C771.142 329.083 758.619 314.92 732.676 312.609C706.316 313 693.33 326.217 693.714 352.265C696.227 355.667 699.472 358.029 703.455 359.346C720.194 360.547 736.892 361.964 753.548 363.595C753.239 365.343 752.312 366.759 750.765 367.844C754.363 369.232 758.076 369.705 761.897 369.26C753.979 374.144 745.63 377.922 736.85 380.591C711.645 381.936 693.091 371.549 681.191 349.432C679.349 338.198 678.422 326.868 678.408 315.442C678.764 292.013 688.969 275.018 709.021 264.455C758.084 253.077 784.984 272.905 789.727 323.939Z" fill="#DEA892"/>
<path fill-rule="evenodd" clip-rule="evenodd" d="M294.359 275.786C296.707 308.975 305.521 340.133 320.797 369.26C351.548 403.421 386.335 432.22 425.158 455.654C437.681 468.4 450.205 481.147 462.728 493.893C464.812 497.108 464.35 499.941 461.336 502.391C459.647 502.04 458.72 501.097 458.553 499.559C458.523 495.262 456.669 491.956 452.988 489.645C445.771 483.656 438.349 478.464 430.724 474.065C403.999 451.17 375.243 430.869 344.452 413.165C333.785 400.419 323.115 387.672 312.448 374.926C289.95 342.606 282.531 306.726 290.184 267.288C290.83 270.792 292.221 273.624 294.359 275.786Z" fill="#FBFDFD"/>
<path fill-rule="evenodd" clip-rule="evenodd" d="M953.922 275.786C956.401 280.859 959.184 286.051 962.271 291.365C960.414 293.254 958.561 295.14 956.705 297.03C916.583 292.135 877.621 296.854 839.82 311.193C835.387 313.881 831.677 317.184 828.688 321.107C826.181 318.869 824.324 316.036 823.122 312.609C823.122 311.666 823.122 310.72 823.122 309.776C839.411 299.61 857.038 292.529 875.999 288.532C900.18 286.626 924.3 287.096 948.356 289.948C947.179 283.487 949.035 278.765 953.922 275.786Z" fill="#DEAA93"/>
<path fill-rule="evenodd" clip-rule="evenodd" d="M834.254 329.604C830.341 328.265 828.485 325.432 828.688 321.107C831.677 317.184 835.387 313.881 839.82 311.193C877.621 296.854 916.583 292.135 956.705 297.03C958.561 295.14 960.414 293.254 962.271 291.365C959.184 286.051 956.401 280.859 953.922 275.786C954.495 269.982 956.813 269.035 960.879 272.953C965.966 266.418 970.603 267.361 974.794 275.786C975.596 284.204 973.277 291.758 967.837 298.446C971.363 303.746 971.363 308.938 967.837 314.025C943.227 308.853 918.18 306.964 892.696 308.36C871.582 311.272 852.101 318.353 834.254 329.604Z" fill="#E7CCC2"/>
<path fill-rule="evenodd" clip-rule="evenodd" d="M88.419 253.125C95.9135 256.105 103.336 258.937 110.683 261.623C116.666 268.483 117.593 276.038 113.466 284.283C113.307 287.425 112.38 290.257 110.683 292.781C106.973 295.614 103.261 298.446 99.5508 301.279C97.5777 298.718 94.7947 297.775 91.2019 298.446C95.2317 292.625 98.9414 286.487 102.334 280.034C100.942 278.618 99.5508 277.202 98.1594 275.786C91.2826 280.915 84.3252 285.637 77.2871 289.948C72.1859 284.295 70.7944 277.686 73.1127 270.12C76.8975 262.974 81.9987 257.309 88.419 253.125Z" fill="#EAD8D0"/>
<path fill-rule="evenodd" clip-rule="evenodd" d="M238.699 275.786C241.454 293.192 242.381 311.13 241.482 329.604C218.45 346.07 194.33 361.176 169.125 374.926C144.323 356.777 121.595 336.003 100.942 312.609C99.5787 308.946 99.1139 305.168 99.5508 301.279C103.261 298.446 106.973 295.614 110.683 292.781C115.62 301.041 122.112 308.122 130.163 314.025C142.687 322.996 155.21 331.964 167.734 340.935C168.844 340.289 169.306 339.343 169.125 338.102C192.388 317.249 215.578 296.475 238.699 275.786Z" fill="#D7E7EC"/>
<path fill-rule="evenodd" clip-rule="evenodd" d="M91.2019 298.446C84.9319 309.927 79.3659 309.453 74.5041 297.03C75.1803 294.475 76.1099 292.115 77.2871 289.948C84.3252 285.637 91.2826 280.915 98.1594 275.786C99.5508 277.202 100.942 278.618 102.334 280.034C98.9414 286.487 95.2317 292.625 91.2019 298.446Z" fill="#89919A"/>
<path fill-rule="evenodd" clip-rule="evenodd" d="M113.466 284.283C133.831 300.29 152.383 318.229 169.125 338.102C169.306 339.343 168.844 340.289 167.734 340.935C155.21 331.964 142.687 322.996 130.163 314.025C122.112 308.122 115.62 301.041 110.683 292.781C112.38 290.257 113.307 287.425 113.466 284.283Z" fill="#FCFDFD"/>
<path fill-rule="evenodd" clip-rule="evenodd" d="M519.779 304.111C532.644 307.468 545.633 310.3 558.74 312.609C565.745 308.657 573.167 305.825 581.004 304.111C585.284 303.978 588.067 305.867 589.353 309.776C589.592 312.598 588.663 314.957 586.57 316.858C578.151 317.88 569.803 319.297 561.523 321.107C558.07 319.586 554.822 317.696 551.783 315.441C544.408 318.764 537.451 322.54 530.911 326.772C527.938 324.126 524.229 323.18 519.779 323.939C517.589 319.396 513.879 317.507 508.647 318.274C508.647 317.331 508.647 316.385 508.647 315.442C513.286 312.609 516.996 308.833 519.779 304.111Z" fill="#F0E2D9"/>
<path fill-rule="evenodd" clip-rule="evenodd" d="M589.353 309.776C607.784 313.331 626.339 313.331 645.012 309.776C644.798 320.299 645.725 330.684 647.795 340.935C647.976 342.175 647.514 343.121 646.404 343.767C642.733 338.139 637.632 334.833 631.097 333.853C617.213 332.44 603.298 331.967 589.353 332.437C572.758 319.438 556.522 321.325 540.651 338.102C534.42 353.205 536.276 367.368 546.217 380.591C548.488 384.338 551.736 386.225 555.957 386.256C557.925 390.884 561.17 394.663 565.698 397.586C567.042 400.271 567.504 403.104 567.089 406.084C562.358 406.441 558.184 408.33 554.566 411.749C552.417 411.338 550.561 410.395 549 408.916C547.158 420.966 542.056 422.853 533.694 414.581C531.837 415.525 529.984 416.471 528.128 417.414C526.678 397.983 525.751 378.628 525.345 359.346C525.659 348.166 527.515 337.306 530.911 326.772C537.451 322.54 544.408 318.764 551.783 315.441C554.822 317.696 558.07 319.586 561.523 321.107C569.803 319.297 578.151 317.88 586.57 316.858C588.663 314.957 589.592 312.598 589.353 309.776Z" fill="#DFAC97"/>
<path fill-rule="evenodd" clip-rule="evenodd" d="M770.246 355.098C766.942 362.108 761.377 364.941 753.548 363.595C736.892 361.964 720.194 360.547 703.455 359.346C699.472 358.029 696.227 355.667 693.714 352.265C693.33 326.217 706.316 313 732.676 312.609C758.619 314.92 771.142 329.083 770.246 355.098Z" fill="#C4364C"/>
<path fill-rule="evenodd" clip-rule="evenodd" d="M823.122 309.776C823.122 310.72 823.122 311.666 823.122 312.609C810.691 328.828 805.125 346.767 806.424 366.428C807.209 370.048 809.066 372.88 811.99 374.926C818.452 394.7 827.266 413.584 838.429 431.577C842.965 443.108 847.139 454.439 850.952 465.568C845.528 471.411 839.035 475.187 831.471 476.898C823.122 476.898 814.773 476.898 806.424 476.898C802.745 477.38 799.498 476.436 796.684 474.065C779.405 440.947 759.459 409.789 736.85 380.591C745.63 377.922 753.979 374.144 761.897 369.26C773.232 367.997 778.798 361.386 778.595 349.432C790.562 348.54 795.201 341.929 792.51 329.604C795.293 328.661 797.149 326.772 798.076 323.939C805.762 318.002 814.111 313.283 823.122 309.776Z" fill="#E8BE6A"/>
<path fill-rule="evenodd" clip-rule="evenodd" d="M823.122 312.609C824.324 316.036 826.181 318.869 828.688 321.107C828.485 325.432 830.341 328.265 834.254 329.604C826.209 336.357 818.324 343.912 810.599 352.265C807.791 356.585 806.399 361.307 806.424 366.428C805.125 346.767 810.691 328.828 823.122 312.609Z" fill="#F3D87E"/>
<path fill-rule="evenodd" clip-rule="evenodd" d="M508.647 318.274C513.879 317.507 517.589 319.396 519.779 323.939C515.02 328.755 509.454 332.53 503.081 335.27C501.392 334.918 500.465 333.975 500.298 332.437C502.547 327.565 505.33 322.843 508.647 318.274Z" fill="#62678C"/>
<path fill-rule="evenodd" clip-rule="evenodd" d="M645.012 309.776C656.211 311.3 667.343 313.19 678.408 315.442C678.422 326.868 679.349 338.198 681.191 349.432C670.195 345.994 659.063 343.161 647.795 340.935C645.725 330.684 644.798 320.299 645.012 309.776Z" fill="#EBC570"/>
<path fill-rule="evenodd" clip-rule="evenodd" d="M589.353 332.437C588.554 337.029 585.771 339.861 581.004 340.935C569.149 338.343 556.625 339.289 543.434 343.767C541.578 349.432 541.578 355.098 543.434 360.763C548.666 367.711 555.159 373.376 562.915 377.758C564.259 380.443 564.721 383.276 564.306 386.256C561.523 386.256 558.74 386.256 555.957 386.256C551.736 386.225 548.488 384.338 546.217 380.591C536.276 367.368 534.42 353.205 540.651 338.102C556.522 321.325 572.758 319.438 589.353 332.437Z" fill="#E7CFC5"/>
<path fill-rule="evenodd" clip-rule="evenodd" d="M789.727 323.939C790.653 323.939 791.583 323.939 792.51 323.939C792.51 325.829 792.51 327.715 792.51 329.604C795.201 341.929 790.562 348.54 778.595 349.432C778.798 361.386 773.232 367.997 761.897 369.26C758.076 369.705 754.363 369.232 750.765 367.844C752.312 366.759 753.239 365.343 753.548 363.595C761.377 364.941 766.942 362.108 770.246 355.098C772.497 350.022 773.889 344.356 774.42 338.102C776.967 340.448 778.82 343.28 779.986 346.6C784.77 339.448 788.018 331.893 789.727 323.939Z" fill="#E5CABE"/>
<path fill-rule="evenodd" clip-rule="evenodd" d="M811.99 374.926C835.977 397.28 854.531 423.717 867.65 454.237C866.662 457.132 864.805 459.022 862.084 459.903C859.009 463.018 855.299 464.908 850.952 465.568C847.139 454.439 842.965 443.108 838.429 431.577C827.266 413.584 818.452 394.7 811.99 374.926Z" fill="#F2D87E"/>
<path fill-rule="evenodd" clip-rule="evenodd" d="M247.048 363.595C256.972 389.137 269.031 413.686 283.227 437.242C283.586 442.103 284.512 446.825 286.01 451.405C283.188 454.73 279.478 456.617 274.878 457.07C263.44 426.543 254.161 395.385 247.048 363.595Z" fill="#D2E3E7"/>
<path fill-rule="evenodd" clip-rule="evenodd" d="M316.622 425.912C319.709 426.073 322.492 427.017 324.971 428.744C324.044 430.634 323.115 432.52 322.188 434.409C317.527 438.664 312.426 442.44 306.882 445.74C305.816 444.165 304.424 443.222 302.707 442.907C302.549 439.766 301.622 436.933 299.924 434.409C303.851 428.634 309.417 425.801 316.622 425.912Z" fill="#333638"/>
<path fill-rule="evenodd" clip-rule="evenodd" d="M324.971 428.744C326.827 429.688 328.681 430.634 330.537 431.577C343.322 462.358 360.947 489.741 383.413 513.721C386.898 517.973 389.681 522.695 391.762 527.884C391.595 529.422 390.669 530.366 388.979 530.717C357.028 505.722 334.764 473.621 322.188 434.409C323.115 432.52 324.044 430.634 324.971 428.744Z" fill="#9E6B6B"/>
<path fill-rule="evenodd" clip-rule="evenodd" d="M299.924 434.409C301.622 436.933 302.549 439.766 302.707 442.907C299.134 448.895 293.568 451.728 286.01 451.405C284.512 446.825 283.586 442.103 283.227 437.242C288.612 435.401 294.178 434.458 299.924 434.409Z" fill="#EDD580"/>
<path fill-rule="evenodd" clip-rule="evenodd" d="M330.537 431.577C364.929 443.553 398.325 457.716 430.724 474.065C438.349 478.464 445.771 483.656 452.988 489.645C456.669 491.956 458.523 495.262 458.553 499.559C432.959 501.538 407.912 506.26 383.413 513.721C360.947 489.741 343.322 462.358 330.537 431.577Z" fill="#AFC3CC"/>
<path fill-rule="evenodd" clip-rule="evenodd" d="M322.188 434.409C334.764 473.621 357.028 505.722 388.979 530.717C390.669 530.366 391.595 529.422 391.762 527.884C394.428 529.167 396.749 531.054 398.72 533.549C415.713 531.195 432.875 529.309 450.205 527.884C466.66 531.671 483.358 535.92 500.298 540.631C505.246 546.678 507.102 553.76 505.864 561.875C465.984 564.458 426.096 565.875 386.196 566.124C374.455 554.071 362.396 542.271 350.018 530.717C350.432 527.737 349.97 524.904 348.626 522.219C335.775 507.849 323.251 493.214 311.056 478.314C306.584 478.368 301.945 478.838 297.141 479.731C251.57 491.355 213.074 514.962 181.648 550.545C164.516 574.956 148.283 599.503 132.946 624.192C127.38 622.302 121.815 620.416 116.249 618.526C114.512 617.345 113.585 615.456 113.466 612.861C138.429 554.881 178.317 510.977 233.133 481.147C247.034 473.128 260.949 465.1 274.878 457.07C279.478 456.617 283.188 454.73 286.01 451.405C293.568 451.728 299.134 448.895 302.707 442.907C304.424 443.222 305.816 444.165 306.882 445.74C312.426 442.44 317.527 438.664 322.188 434.409Z" fill="#865E5F"/>
<path fill-rule="evenodd" clip-rule="evenodd" d="M1001.23 465.568C987.916 471.901 975.857 480.399 965.054 491.061C963.197 488.228 961.344 485.396 959.488 482.563C970.517 477.731 978.866 469.703 984.534 458.486C992.31 455.733 997.876 458.093 1001.23 465.568Z" fill="#F2EAE3"/>
<path fill-rule="evenodd" clip-rule="evenodd" d="M862.084 459.903C863.322 468.018 861.466 475.099 856.518 481.147C870.642 494.882 884.556 508.572 898.263 522.219C894.865 524.953 891.155 524.48 887.131 520.803C872.242 512.282 858.327 502.368 845.386 491.061C840.688 493.953 836.979 497.732 834.254 502.391C805.601 537.988 779.627 575.755 756.331 615.694C754.035 618.204 751.252 619.147 747.982 618.526C747.031 616.153 745.177 615.207 742.416 615.694C742.416 614.751 742.416 613.805 742.416 612.861C767.059 574.936 792.571 537.169 818.948 499.559C824.514 493.893 830.08 488.228 835.646 482.563C837.115 478.836 835.724 476.946 831.471 476.898C839.035 475.187 845.528 471.411 850.952 465.568C855.299 464.908 859.009 463.018 862.084 459.903Z" fill="#555B82"/>
<path fill-rule="evenodd" clip-rule="evenodd" d="M1001.23 465.568C1012.13 477.164 1022.8 489.441 1033.24 502.391C1034.58 505.076 1035.04 507.909 1034.63 510.889C1014.63 511.804 997.472 505.195 983.143 491.061C978.648 493.57 974.474 496.403 970.62 499.559C968.112 497.321 966.256 494.488 965.054 491.061C975.857 480.399 987.916 471.901 1001.23 465.568Z" fill="#979FB8"/>
<path fill-rule="evenodd" clip-rule="evenodd" d="M350.018 530.717C336.779 535.093 324.718 541.704 313.839 550.545C308.877 546.231 307.024 540.566 308.273 533.549C310.283 534.733 311.674 536.62 312.448 539.215C315.016 521.338 312.233 504.343 304.099 488.228C302.129 485.733 299.808 483.846 297.141 482.563C297.141 481.62 297.141 480.674 297.141 479.731C301.945 478.838 306.584 478.368 311.056 478.314C323.251 493.214 335.775 507.849 348.626 522.219C349.97 524.904 350.432 527.737 350.018 530.717Z" fill="#AFC2CB"/>
<path fill-rule="evenodd" clip-rule="evenodd" d="M806.424 476.898C814.773 476.898 823.122 476.898 831.471 476.898C835.724 476.946 837.115 478.836 835.646 482.563C830.08 488.228 824.514 493.893 818.948 499.559C792.571 537.169 767.059 574.936 742.416 612.861C738.707 611.918 734.994 610.972 731.284 610.029C728.229 606.91 727.764 603.134 729.893 598.698C752.552 556.808 778.99 517.625 809.207 481.147C807.66 480.062 806.733 478.646 806.424 476.898Z" fill="#4A496F"/>
<path fill-rule="evenodd" clip-rule="evenodd" d="M297.141 479.731C297.141 480.674 297.141 481.62 297.141 482.563C292.892 482.356 290.109 484.246 288.793 488.228C259.644 503.533 231.814 521.001 205.304 540.631C182.478 567.716 163.459 597.458 148.253 629.857C145.066 633.21 141.818 633.21 138.512 629.857C136.656 627.967 134.803 626.081 132.946 624.192C148.283 599.503 164.516 574.956 181.648 550.545C213.074 514.962 251.57 491.355 297.141 479.731Z" fill="#9D6867"/>
<path fill-rule="evenodd" clip-rule="evenodd" d="M297.141 482.563C299.808 483.846 302.129 485.733 304.099 488.228C312.233 504.343 315.016 521.338 312.448 539.215C311.674 536.62 310.283 534.733 308.273 533.549C304.733 516.919 298.238 501.813 288.793 488.228C290.109 484.246 292.892 482.356 297.141 482.563Z" fill="#D5E4EA"/>
<path fill-rule="evenodd" clip-rule="evenodd" d="M959.488 482.563C961.344 485.396 963.197 488.228 965.054 491.061C966.256 494.488 968.112 497.321 970.62 499.559C971.034 502.538 970.572 505.371 969.228 508.056C948.197 524.737 926.398 540.316 903.828 554.794C899.47 556.96 895.76 556.487 892.696 553.377C921.823 536.014 944.087 512.41 959.488 482.563Z" fill="#555B82"/>
<path fill-rule="evenodd" clip-rule="evenodd" d="M959.488 482.563C944.087 512.41 921.823 536.014 892.696 553.377C873.216 536.382 853.735 519.387 834.254 502.391C836.979 497.732 840.688 493.953 845.386 491.061C858.327 502.368 872.242 512.282 887.131 520.803C891.155 524.48 894.865 524.953 898.263 522.219C917.145 509.274 935.696 495.584 953.922 481.147C956.529 479.187 958.383 479.66 959.488 482.563Z" fill="#4A496F"/>
<path fill-rule="evenodd" clip-rule="evenodd" d="M542.043 550.545C542.496 543.868 542.034 537.26 540.651 530.717C539.585 529.142 538.194 528.199 536.477 527.884C546.39 517.752 558.448 513.503 572.655 515.138C587.277 541.594 598.409 569.447 606.051 598.699C574.553 596.88 553.219 580.828 542.043 550.545Z" fill="#2E3134"/>
<path fill-rule="evenodd" clip-rule="evenodd" d="M516.996 530.717C518.284 538.733 520.138 546.287 522.562 553.377C522.562 556.21 522.562 559.043 522.562 561.875C516.996 561.875 511.43 561.875 505.864 561.875C507.102 553.76 505.246 546.678 500.298 540.631C483.358 535.92 466.66 531.671 450.205 527.884C452.334 526.686 454.652 525.74 457.162 525.052C477.227 526.893 497.17 528.779 516.996 530.717Z" fill="#9D6868"/>
<path fill-rule="evenodd" clip-rule="evenodd" d="M536.477 527.884C538.194 528.199 539.585 529.142 540.651 530.717C542.034 537.26 542.496 543.868 542.043 550.545C535.625 551.941 529.132 552.885 522.562 553.377C520.138 546.287 518.284 538.733 516.996 530.717C523.566 530.224 530.059 529.281 536.477 527.884Z" fill="#C8C3C8"/>
<path fill-rule="evenodd" clip-rule="evenodd" d="M116.249 624.192C117.79 634.261 123.356 640.87 132.946 644.02C133.567 658.165 126.61 667.609 112.074 672.345C103.747 670.235 95.8605 666.929 88.4189 662.431C30.3495 604.383 39.6251 591.637 116.249 624.192Z" fill="#2E3134"/>
<path fill-rule="evenodd" clip-rule="evenodd" d="M533.694 638.354C519.489 643.649 512.997 654.036 514.213 669.513C438.079 669.204 362.012 666.844 286.01 662.431C270.447 653.571 268.129 641.768 279.052 627.024C293.059 614.875 309.295 609.21 327.754 610.029C372.874 614.586 417.402 622.614 461.337 634.106C486.094 636.853 510.214 638.269 533.694 638.354Z" fill="#1D2221"/>
<path fill-rule="evenodd" clip-rule="evenodd" d="M731.284 610.029C734.994 610.972 738.707 611.918 742.416 612.861C742.416 613.805 742.416 614.751 742.416 615.694C739.644 615.45 737.326 616.396 735.459 618.526C730.731 631.607 724.7 643.881 717.37 655.35C705.801 649.217 693.742 644.495 681.191 641.187C678.923 637.4 675.675 634.567 671.451 632.689C669.733 630.001 670.195 627.642 672.842 625.608C687.937 620.506 703.243 620.036 718.761 624.192C725.379 621.707 729.553 616.986 731.284 610.029Z" fill="#969DB6"/>
<path fill-rule="evenodd" clip-rule="evenodd" d="M742.416 615.694C745.177 615.207 747.031 616.153 747.982 618.526C739.959 629.389 734.855 641.666 732.676 655.35C730.405 659.097 727.157 660.984 722.935 661.015C722.009 658.182 720.153 656.293 717.37 655.35C724.7 643.881 730.731 631.607 735.459 618.526C737.326 616.396 739.644 615.45 742.416 615.694Z" fill="#F1E9E2"/>
<path fill-rule="evenodd" clip-rule="evenodd" d="M116.249 618.526C121.815 620.416 127.38 622.302 132.946 624.192C134.803 626.081 136.656 627.967 138.512 629.857C135.894 634.247 134.04 638.966 132.946 644.02C123.356 640.87 117.79 634.261 116.249 624.192C116.249 622.302 116.249 620.416 116.249 618.526Z" fill="#C0BABF"/>
<path fill-rule="evenodd" clip-rule="evenodd" d="M533.694 638.354C582.844 639.946 632.01 640.892 681.191 641.187C693.742 644.495 705.801 649.217 717.37 655.35C720.153 656.293 722.009 658.182 722.935 661.015C654.452 666.677 584.878 669.51 514.213 669.513C512.997 654.036 519.489 643.649 533.694 638.354Z" fill="#222A25"/>
</g>
</g>
<defs>
<clipPath id="clip0_8_4">
<rect width="1074" height="696" fill="white"/>
</clipPath>
</defs>
</svg>
